<?xml version="1.0" encoding="UTF-8"?>
<svg width="36px" height="36px" viewBox="0 0 36 36" version="1.1" xmlns="http://www.w3.org/2000/svg" xmlns:xlink="http://www.w3.org/1999/xlink">
    <!-- Generator: Sketch 46.2 (44496) - http://www.bohemiancoding.com/sketch -->
    <title>Disclose</title>
    <desc>Created with Sketch.</desc>
    <defs></defs>
    <g id="Page-1" stroke="none" stroke-width="1" fill="none" fill-rule="evenodd">
        <g id="Disclose" fill="#BD34A9">
            <path d="M20,17 L20,10.5 C20,9.67157288 19.3284271,9 18.5,9 C17.6715729,9 17,9.67157288 17,10.5 L17,10.5 L17,17 L10.5,17 C9.67157288,17 9,17.6715729 9,18.5 C9,19.3284271 9.67157288,20 10.5,20 L17,20 L17,26.5 C17,27.3284271 17.6715729,28 18.5,28 C19.3284271,28 20,27.3284271 20,26.5 L20,20 L26.5,20 C27.3284271,20 28,19.3284271 28,18.5 C28,17.6715729 27.3284271,17 26.5,17 L20,17 Z" id="Plus"></path>
        </g>
    </g>
</svg>