<?xml version="1.0" encoding="UTF-8"?>
<svg width="36px" height="36px" viewBox="0 0 36 36" version="1.1" xmlns="http://www.w3.org/2000/svg" xmlns:xlink="http://www.w3.org/1999/xlink">
    <!-- Generator: Sketch 46.2 (44496) - http://www.bohemiancoding.com/sketch -->
    <title>Disclose</title>
    <desc>Created with Sketch.</desc>
    <defs></defs>
    <g id="Page-1" stroke="none" stroke-width="1" fill="none" fill-rule="evenodd">
        <g id="Disclose" fill="#BD34A9">
            <path d="M20,17 L20,10 C20,9.44771525 19.5522847,9 19,9 L18,9 C17.4477153,9 17,9.44771525 17,10 L17,10 L17,17 L10,17 C9.44771525,17 9,17.4477153 9,18 L9,19 C9,19.5522847 9.44771525,20 10,20 L17,20 L17,27 C17,27.5522847 17.4477153,28 18,28 L19,28 C19.5522847,28 20,27.5522847 20,27 L20,20 L27,20 C27.5522847,20 28,19.5522847 28,19 L28,18 C28,17.4477153 27.5522847,17 27,17 L20,17 Z" id="Plus"></path>
        </g>
    </g>
</svg>